# xmcd CD database file
#
# Track frame offsets:
#	150
#	20320
#	35952
#	53503
#	74535
#	89491
#	110334
#	134356
#	158043
#	177928
#	196551
#	222518
#	240195
#
# Disc length: 3493 seconds
#
# Revision: 0
# Processed by: cddbd v1.5.1PL2 Copyright (c) Steve Scherf et al.
# Submitted via: CDex 1.51
#
DISCID=ac0da30d
DTITLE=Greetje Kauffeld - Dreaming
DYEAR=1999
DGENRE=Jazz
TTITLE0=When I Grow Too Old To Dream
TTITLE1=Put Your Dreams Away
TTITLE2=All I Do Is Dream Of You
TTITLE3=Deep In A Dream
TTITLE4=This Time The Dreams On Me
TTITLE5=Darn That Dream
TTITLE6=Daydream
TTITLE7=I Have Dreamed
TTITLE8=The Boulevard Of Broken Dreams
TTITLE9=Dream A Little Dream Of Me
TTITLE10=I´ll Buy That Dream
TTITLE11=Pieces Of Dreams
TTITLE12=You Stepped Out Of A Dream
EXTD=YEAR: 1999
EXTT0=
EXTT1=
EXTT2=
EXTT3=
EXTT4=
EXTT5=
EXTT6=
EXTT7=
EXTT8=
EXTT9=
EXTT10=
EXTT11=
EXTT12=
PLAYORDER=
